# xmcd
#
# Track frame offsets: 
#        150
#        8294
#        18245
#        27728
#        39347
#        52161
#        61449
#        72168
#        83657
#        94319
#        107830
#        117834
#        129332
#        143030
#        152366
#        162676
#        175406
#        186760
#        198913
#        212008
#        224766
#        238454
#        249653
#        258737
#        269654
#
# Disc length: 3775 seconds
#
# Revision: 3
# Processed by: cddbd v1.5.2PL0 Copyright (c) Steve Scherf et al.
# Submitted via: ExactAudioCopy v1.0b3
#
DISCID=750ebd19
DTITLE=Various Artist - The Aladdin Story Disc 2
DYEAR=2012
DGENRE=Blues
TTITLE0=Thurston Harris - Hey Little Girl
TTITLE1=Sugar Pie and Pee Wee - One, Two, Let's Rock
TTITLE2=The DeVilles - Do Wop
TTITLE3=Marvin and Johnny - Yak Yak
TTITLE4=Shirley and Lee - Feel So Good
TTITLE5=Big 'T' Tyler - King Kong
TTITLE6=Charles Brown - Trouble Blues
TTITLE7=The Cookies - Don't Let Go (Hold Me, Hold Me, Hold Me)
TTITLE8=The Five Keys - Hucklebuck With Jimmy
TTITLE9=Floyd Dixon - Call Operator 210
TTITLE10=The Four Palms - Jeanie, Joanie, Shirley, Toni
TTITLE11=Johnny Inman and the Impollos - You Never Realized
TTITLE12=Bip and Bop - Ding Dong Ding
TTITLE13=The Jivers - Ray Pearl
TTITLE14=Thurston Harris - Over and Over
TTITLE15=Lee Allen - Rockin' at Cosmo's
TTITLE16=The Shades - One Touch of Heaven
TTITLE17=Louis Jordan - Messy Bessy
TTITLE18=Ray Ellis and Orchestra - Darling, It's Wonderful
TTITLE19=Crawford Brothers - I Ain't Guilty
TTITLE20=Fatso Theus and the Flairs - Be Cool My Heart
TTITLE21=The Monitors - Candy Coated Kisses
TTITLE22=Billie Holliday - Blue Turning Grey Over You
TTITLE23=The Rockets - Loch Lomond
TTITLE24=The Velvetones - The Glory of Love
EXTD=
EXTT0=
EXTT1=
EXTT2=
EXTT3=
EXTT4=
EXTT5=
EXTT6=
EXTT7=
EXTT8=
EXTT9=
EXTT10=
EXTT11=
EXTT12=
EXTT13=
EXTT14=
EXTT15=
EXTT16=
EXTT17=
EXTT18=
EXTT19=
EXTT20=
EXTT21=
EXTT22=
EXTT23=
EXTT24=
PLAYORDER=
